<svg xmlns="http://www.w3.org/2000/svg" viewBox="0 0 48 48" xmlns:v="https://vecta.io/nano" fill="#ADB5BD"><ellipse cx="21.07" cy="17.66" rx=".98" ry="1.46"/><path d="m24,4C12.95,4,4,12.95,4,24s8.95,20,20,20,20-8.95,20-20S35.05,4,24,4Zm-5.85,30.83c.88,1.56,1.66,1.85,4,1.37,2.54-.59,2.83-.39,2.83,2.05s-.2,2.54-3.41,2.05c-1.95-.29-4.98-1.46-6.83-2.63-6.15-3.8-9.95-16.59-5.37-18.05,1.07-.39,1.95-1.46,1.95-2.54s.49-2.44.98-3.12c.59-.68,1.76-2.05,2.54-3.12q1.46-1.85.88.68c-.49,2.34-.2,2.73,1.76,2.73,2.54,0,4.59-1.66,4.59-3.71,0-.78-.59-1.17-1.46-.78-1.56.59-1.95-.49-.68-1.76,1.37-1.46,10.24,0,11.61,1.95,2.15,3.02,1.56,4.2-1.85,3.71-2.54-.39-3.51-.1-4.49,1.56-1.56,2.54-.78,3.71,1.27,1.95,1.07-.88,1.85-.98,2.63-.2.68.68-.2,1.76-3.02,3.51-2.15,1.37-4.39,2.54-4.98,2.54-.49,0-.98.68-.98,1.46,0,1.66,1.37,1.85,3.9.49,1.27-.68,2.05-.68,2.44,0,.88,1.46,2.44,1.17,2.44-.49,0-.78.88-1.85,1.85-2.44,2.54-1.27,3.02-1.27,3.02.49,0,.78-.68,1.46-1.46,1.46s-1.46.39-1.46.98c0,.49.59.98,1.37.98s2.15.98,2.93,2.15c1.27,1.76,1.76,1.95,2.73.88.98-1.07.98-1.37.1-1.76-1.85-.68-1.56-1.95.68-2.54,2.34-.59,2.54.98.49,5.76-1.17,2.93-1.66,3.32-3.32,2.44-1.07-.59-2.24-1.95-2.54-3.02-.68-2.15-1.27-2.34-3.32-1.07-.88.59-2.34.59-3.71,0-5.17-1.95-10.24,1.85-8.1,6.05Z"/></svg>